<?xml version="1.0" encoding="UTF-8"?>
<svg id="Capa_2" data-name="Capa 2" xmlns="http://www.w3.org/2000/svg" viewBox="0 0 63.74 11.96">
  <defs>
    <style>
      .cls-1 {
        fill: #fff;
      }
    </style>
  </defs>
  <g id="Capa_1-2" data-name="Capa 1">
    <g>
      <path class="cls-1" d="M11.04,11.77h-1.99l-1.75-3.56c.16-.05.32-.09.49-.11.17-.03.32-.04.46-.03-.09-.02-.19-.03-.3-.04-.09,0-.2-.02-.33-.02-.12,0-.26,0-.41.02h-.01s-.12.02-.21.04c-.88.16-1.66.41-2.33.75-.68.34-1.25.69-1.71,1.04l-.99,1.92H0L5.62,1.04l3.21,6.34c.35.07.66.14.94.23.27.09.51.17.7.24.23.09.42.19.58.28-.34-.08-.67-.13-1-.16-.33-.03-.64-.05-.94-.06l1.94,3.86ZM5.58,4.71l-1.45,2.81c-.17.08-.31.17-.43.26-.12.09-.22.17-.29.25-.09.09-.17.18-.21.27.1-.1.23-.2.37-.28.14-.08.28-.15.41-.21h.01c.52-.19,1.02-.33,1.5-.41s.93-.14,1.36-.16h.01l-1.26-2.57v.03Z"/>
      <path class="cls-1" d="M19.66,0v11.77h-1.82v-.62c-.64.54-1.37.81-2.19.81-1.02,0-1.86-.34-2.53-1.02-.67-.69-1.01-1.56-1.01-2.6s.33-1.86.99-2.55c.67-.69,1.51-1.04,2.51-1.04h.12s.07,0,.12.01c.09,0,.19.02.33.04.13.02.28.06.44.11.44.14.85.38,1.21.71h0c.15.14.28.3.38.47-.02-.06-.05-.12-.08-.2-.06-.12-.16-.28-.3-.47V0h1.82ZM17.34,9.91c.2-.17.37-.36.52-.57.15-.21.27-.41.36-.6.1-.22.19-.44.27-.67,0,.02-.02.04-.03.06,0,.02-.02.04-.03.06-.08.16-.16.3-.25.41s-.17.21-.25.28c0,.02-.02.03-.03.04,0,0-.02.02-.03.04-.05.05-.09.09-.13.11s-.07.05-.1.07c-.04.03-.07.04-.09.04.11-.11.19-.23.23-.36.05-.13.08-.25.1-.38.02-.12.03-.24.02-.34,0-.1-.01-.19-.02-.26-.09-.4-.26-.73-.51-.99-.38-.38-.87-.57-1.46-.57-.56,0-1.02.2-1.39.6-.37.39-.55.89-.55,1.52s.19,1.1.57,1.48c.36.37.8.56,1.33.58.1,0,.2,0,.3,0s.18-.03.27-.05c.36-.08.66-.24.89-.48Z"/>
      <path class="cls-1" d="M27.26,5.49c.44.44.65,1.14.65,2.1v4.17h-1.82v-4.03c0-.53-.1-.91-.3-1.14-.2-.22-.52-.33-.96-.33-.56,0-.96.16-1.18.47-.23.33-.34.9-.34,1.72v3.31h-1.82V0h1.82v5.17c-.11.11-.21.23-.29.34-.08.11-.14.21-.19.3-.06.1-.1.2-.14.28.18-.27.38-.5.62-.68.12-.09.25-.17.37-.24.18-.09.36-.17.53-.23.17-.06.33-.1.47-.13.14-.03.26-.05.36-.06.1,0,.16-.01.19-.01h.01c.84,0,1.52.25,2.02.75Z"/>
      <path class="cls-1" d="M36.77,9.92l-.03.06c-.11.17-.23.33-.35.48-.12.15-.24.29-.36.41-.12.13-.25.25-.38.35s-.27.19-.41.28c-.27.14-.57.26-.92.35-.32.07-.68.1-1.08.1-1.12,0-2.01-.33-2.67-.98-.67-.65-1.01-1.52-1.01-2.61s.33-1.95.98-2.63c.66-.66,1.53-.99,2.61-.99s1.96.32,2.58.97c.63.63.95,1.51.95,2.64v.44h-5.41c.03.08.06.15.11.23.04.08.1.16.16.23-.02,0-.04,0-.06-.03-.02,0-.04-.02-.06-.04-.02-.02-.05-.04-.08-.06-.02-.02-.04-.03-.06-.04-.26-.23-.51-.5-.75-.81.12.23.26.45.43.68.13.19.3.39.5.6.2.21.42.39.67.55.26.18.55.29.87.33.23.05.45.04.68-.01.36-.07.68-.21.96-.44.28-.23.48-.51.62-.84l1.52.78ZM31.81,6.97c-.09.11-.16.25-.21.41h3.21c-.24-.74-.78-1.11-1.62-1.11-.1,0-.2,0-.29.01-.09,0-.18.03-.26.06-.16.06-.32.14-.47.24-.13.09-.25.22-.35.38Z"/>
      <path class="cls-1" d="M43.25,8.29c.34.33.51.76.51,1.29,0,.7-.28,1.28-.84,1.73-.52.44-1.16.65-1.93.65-1.3,0-2.22-.6-2.78-1.8l1.6-.7.04.06c.19.31.34.52.45.61.2.17.44.26.71.26.45,0,.71-.15.78-.45,0,.09,0,.16,0,.23,0,.07-.02.13-.04.18-.02.06-.04.11-.07.16.09-.12.16-.24.19-.35.03-.11.04-.21.04-.31,0-.09-.04-.18-.08-.26-.04-.08-.08-.14-.12-.2-.12-.15-.3-.29-.52-.41-.09-.05-.18-.09-.27-.12-.09-.03-.17-.07-.26-.12-.09-.04-.18-.08-.27-.11s-.17-.08-.27-.11c-.26-.12-.48-.24-.66-.35-.18-.11-.33-.23-.43-.35-.27-.3-.41-.69-.41-1.16,0-.62.23-1.13.7-1.53.46-.41,1.04-.61,1.73-.61.99,0,1.73.47,2.21,1.42l.03.06-1.58.77-.03-.06c-.22-.41-.48-.61-.78-.61-.11,0-.22.03-.31.1-.05.05-.08.09-.08.14,0,.05,0,.09,0,.14,0,.05.03.1.06.16-.04-.03-.07-.06-.09-.09-.02-.03-.05-.06-.06-.09-.07-.09-.1-.18-.11-.26,0-.05-.01-.1-.01-.17,0-.03,0-.05.01-.07-.08.21-.07.39,0,.53.08.15.17.27.28.36.02.02.04.04.06.05.02.01.05.03.08.05,0,0,0,.01.01.01,0,0,.02.01.03.01.15.1.35.2.6.3.93.37,1.56.71,1.89,1.02Z"/>
      <path class="cls-1" d="M45.03,3.02c-.11-.1-.19-.23-.24-.38s-.07-.3-.07-.45c0-.28.11-.53.34-.75.1-.08.2-.15.28-.18.08,0,.18.03.31.06.13.03.26.08.4.14.14.06.27.14.4.25.13.1.23.24.32.4-.04-.14-.09-.28-.16-.41-.06-.1-.13-.21-.23-.33s-.23-.19-.39-.24c.29.03.53.13.72.31.23.22.34.47.34.77s-.11.55-.34.75c-.22.21-.49.31-.82.31-.16,0-.31-.02-.46-.05-.15-.03-.28-.1-.39-.21ZM44.98,4.93h1.82v6.84h-1.82v-6.84Z"/>
      <path class="cls-1" d="M55.52,4.81l-3.92,7.08-3.89-7.08h2.06l1.69,3.39-.23,1.09.38-.78,1.85-3.7h2.06Z"/>
      <path class="cls-1" d="M62.61,5.79c.76.7,1.14,1.56,1.14,2.57s-.38,1.89-1.15,2.58c-.77.68-1.71,1.02-2.84,1.02s-2.05-.35-2.8-1.05c-.76-.68-1.14-1.55-1.14-2.61,0-.99.38-1.83,1.15-2.51.78-.7,1.71-1.05,2.81-1.05s2.04.35,2.82,1.05ZM61.21,9.98c.2-.16.37-.34.52-.55.15-.2.27-.4.36-.58.09-.18.17-.35.22-.49.05-.14.09-.23.11-.27-.09.21-.19.38-.3.52s-.2.25-.3.33c-.1.1-.21.18-.31.24.19-.22.3-.44.33-.67.03-.23.03-.42.01-.57-.02-.05-.03-.09-.04-.14,0-.05-.02-.09-.04-.14-.05-.16-.11-.31-.19-.44-.08-.13-.17-.26-.28-.37-.38-.37-.87-.56-1.46-.57-.25-.02-.47,0-.67.06-.2.06-.39.14-.56.24-.17.1-.33.23-.47.38-.14.15-.27.3-.37.45-.26.37-.46.79-.62,1.26.16-.33.36-.62.58-.85h0c.06-.06.11-.11.16-.14.03-.02.05-.03.07-.04-.09.13-.16.26-.21.4s-.07.26-.08.38c.02.63.21,1.13.57,1.48.39.39.9.58,1.53.58h.04c.21,0,.4,0,.57-.06.17-.05.33-.11.48-.2.07-.03.13-.06.18-.1.06-.04.11-.08.16-.13Z"/>
    </g>
  </g>
</svg>