<?xml version="1.0" encoding="UTF-8"?>
<svg id="Capa_2" data-name="Capa 2" xmlns="http://www.w3.org/2000/svg" viewBox="0 0 46.1 10.59">
  <defs>
    <style>
      .cls-1 {
        fill: #fff;
      }
    </style>
  </defs>
  <g id="Capa_1-2" data-name="Capa 1">
    <g>
      <path class="cls-1" d="M6.54,6.24c.16.37.24.76.24,1.16,0,.82-.32,1.52-.95,2.09-.37.34-.8.58-1.28.72-.53.13-1.17.2-1.92.2H0V0h1.75c.74,0,1.34.05,1.8.16.46.11.85.3,1.16.55.32.27.58.6.77,1.01.19.41.28.81.28,1.22,0,.66-.23,1.23-.69,1.7-.15-.02-.29-.02-.42-.01-.13,0-.24.02-.35.03-.11.02-.22.03-.32.04.4-.04.75,0,1.05.13.3.13.56.28.77.47s.37.37.5.55.2.31.24.39ZM1.82,4.41h.47c.62,0,1.06-.12,1.33-.35.27-.25.41-.61.41-1.09s-.14-.82-.43-1.05c-.29-.25-.71-.37-1.26-.37h-.53v2.87ZM4.43,8.44c.36-.28.54-.64.54-1.08s-.17-.8-.51-1.08c-.34-.29-.96-.43-1.85-.43h-.79v2.99h.98c.76,0,1.3-.13,1.63-.4Z"/>
      <path class="cls-1" d="M15.12,3.38v7.03h-1.83v-.62c-.68.54-1.41.81-2.17.81-1.04,0-1.89-.34-2.55-1.02-.66-.71-.99-1.58-.99-2.6s.33-1.88.99-2.57c.66-.68,1.5-1.02,2.51-1.02h.13c.09,0,.25.03.48.06.22.03.47.11.74.23.26.12.52.28.75.48.09.08.17.16.25.26.08.09.15.2.22.31-.02-.06-.05-.12-.09-.18-.03-.06-.06-.12-.11-.2-.04-.08-.1-.16-.16-.26v-.71h1.83ZM12.65,8.7c.21-.13.43-.35.67-.64.24-.29.44-.68.59-1.15-.07.19-.15.34-.24.46-.09.12-.19.22-.28.29-.1.09-.22.15-.34.18.09-.1.16-.22.2-.36.04-.14.07-.27.09-.4v-.13c0-.3-.04-.57-.11-.82-.07-.24-.2-.46-.39-.66-.37-.38-.85-.57-1.45-.57-.56,0-1.03.19-1.41.58-.37.4-.55.89-.55,1.48,0,.62.18,1.13.54,1.52.37.4.84.6,1.41.6h.04c.17,0,.34-.03.5-.07.17-.04.32-.09.48-.17.05-.02.09-.04.13-.06.04-.02.08-.05.12-.08Z"/>
      <path class="cls-1" d="M22.64,4.13c.42.44.62,1.13.62,2.09v4.19h-1.82v-3.82c0-.64-.1-1.09-.29-1.33s-.53-.37-1.01-.37c-.55,0-.93.16-1.14.48-.23.33-.34.91-.34,1.73v3.31h-1.82V3.36h1.82v.47c-.13.13-.24.26-.32.4-.08.13-.15.25-.21.35-.07.12-.12.25-.16.37.13-.2.26-.37.38-.53.12-.15.25-.28.38-.4.56-.44,1.18-.67,1.86-.67.86,0,1.54.26,2.04.77Z"/>
      <path class="cls-1" d="M30.61,4.13c.42.44.62,1.13.62,2.09v4.19h-1.82v-3.82c0-.64-.1-1.09-.29-1.33s-.53-.37-1.01-.37c-.55,0-.93.16-1.14.48-.23.33-.34.91-.34,1.73v3.31h-1.82V3.36h1.82v.47c-.13.13-.24.26-.32.4-.08.13-.15.25-.21.35-.07.12-.12.25-.16.37.13-.2.26-.37.38-.53.12-.15.25-.28.38-.4.56-.44,1.18-.67,1.86-.67.86,0,1.54.26,2.04.77Z"/>
      <path class="cls-1" d="M39.64,8.56l-.03.06c-.11.17-.23.33-.35.48-.12.15-.24.29-.36.41-.12.13-.25.25-.38.35s-.27.19-.41.28c-.27.14-.57.26-.92.35-.32.07-.68.1-1.08.1-1.12,0-2.01-.33-2.67-.98-.67-.65-1.01-1.52-1.01-2.61s.33-1.95.98-2.63c.66-.66,1.53-.99,2.61-.99s1.96.32,2.58.97c.63.63.95,1.51.95,2.64v.44h-5.41c.03.08.06.15.11.23.04.08.1.16.16.23-.02,0-.04,0-.06-.03-.02,0-.04-.02-.06-.04-.02-.02-.05-.04-.08-.06-.02-.02-.04-.03-.06-.04-.26-.23-.51-.5-.75-.81.12.23.26.45.43.68.13.19.3.39.5.6.2.21.42.39.67.55.26.18.55.29.87.33.23.05.45.04.68-.01.36-.07.68-.21.96-.44.28-.23.48-.51.62-.84l1.52.78ZM34.67,5.61c-.09.11-.16.25-.21.41h3.21c-.24-.74-.78-1.11-1.62-1.11-.1,0-.2,0-.29.01-.09,0-.18.03-.26.06-.16.06-.32.14-.47.24-.13.09-.25.22-.35.38Z"/>
      <path class="cls-1" d="M46.1,3.82l-.84,1.53-.06-.04c-.31-.2-.61-.3-.89-.3-.88,0-1.32.62-1.32,1.85v3.55h-1.82V3.38h1.82v.43c-.13.13-.25.27-.34.4-.09.14-.17.26-.23.38-.07.13-.12.26-.16.38.13-.2.26-.37.38-.52.12-.15.25-.28.37-.39.08-.07.14-.13.21-.18s.13-.1.19-.15c0,0,.02-.01.03-.01.05-.03.09-.06.13-.09.04-.03.08-.05.13-.07h.01c.26-.13.56-.18.91-.18.45,0,.93.14,1.42.41l.06.03Z"/>
    </g>
  </g>
</svg>