<?xml version="1.0" encoding="UTF-8"?>
<svg id="Capa_2" data-name="Capa 2" xmlns="http://www.w3.org/2000/svg" viewBox="0 0 54.94 10.42">
  <defs>
    <style>
      .cls-1 {
        fill: #fff;
      }
    </style>
  </defs>
  <g id="Capa_1-2" data-name="Capa 1">
    <g>
      <path class="cls-1" d="M8.63,6.98c0,2.44-2.14,3.02-3.93,3.02H0V.06h3.52c1.89-.03,3.26.89,3.26,2.33s-1.21,1.7-1.21,1.7v.18c2.2,0,3.05,1.53,3.05,2.71ZM1.31,3.75h1.89c.97,0,2.29.16,2.29-1.22,0-.84-.68-1.16-1.8-1.16H1.31v2.38ZM7.31,6.98c0-1.39-.92-1.93-2.9-1.93H1.31v3.63c.09,0,3.17.01,3.24.01,2.27,0,2.77-.68,2.77-1.72Z"/>
      <path class="cls-1" d="M16.58,9.18l-.27,1.15c-.44-.11-1.16-.55-1.56-1.31h-.17c-.33.33-.97,1.39-2.5,1.39-2.17,0-3.35-1.66-3.35-3.24,0-1.42.92-2.99,3.34-2.99,1.46,0,2.26,1.29,2.26,1.29h.16c-.14-1.22-.78-2.41-2.7-2.41-.79,0-1.43.18-1.9.55l-.72-.92c.68-.54,1.58-.81,2.63-.81,3.08,0,3.92,2.11,3.92,4.23,0,0-.06,1.45-.06,1.72,0,1.08.85,1.32.94,1.35ZM14.42,7.3c0-.95-.91-1.93-2.36-1.93-.71,0-2.16.37-2.16,1.82,0,1.02.75,2.06,2.17,2.06,1.83,0,2.34-1.21,2.34-1.95Z"/>
      <path class="cls-1" d="M24.41,7.81c0,2.46-2.77,2.46-3.95,2.46-3.26,0-3.93-2.21-3.96-2.31l1.14-.31s.48,1.46,2.82,1.46c2.77,0,2.77-.75,2.77-1.29,0-.24,0-.99-2.91-1.08-1.26-.04-3.61-.11-3.61-2.36,0-1.22.91-2.5,3.46-2.5,2.77,0,3.69,1.77,3.73,1.85l-1.04.54s-.68-1.22-2.7-1.22c-.7,0-2.3.13-2.3,1.33,0,.74.38,1.11,2.48,1.18,1.11.04,4.05.13,4.05,2.26Z"/>
      <path class="cls-1" d="M29.68,8.74c-.18.47-.77,1.26-1.83,1.26-1.59,0-2.31-1.26-2.31-3.12v-3.49h-1.19v-1.18h1.19V.57h1.18v1.65h2.17v1.18h-2.17v3.49c0,1.63.57,1.94,1.14,1.94.5,0,.71-.47.74-.53h0s1.09.44,1.09.44Z"/>
      <path class="cls-1" d="M30.02,1.28V0h1.18v1.28h-1.18ZM30.02,10.01V2.23h1.18v7.78h-1.18Z"/>
      <path class="cls-1" d="M39.93.07v9.94h-1.18v-1.72h-.11c-.61,1.26-1.59,2.06-2.8,2.06-2.9,0-4.07-1.65-4.07-4.23s1.55-4.23,3.9-4.23c1.5,0,2.5,1.08,2.97,2.06h.11V.07h1.18ZM38.73,6.12c0-1.73-1.31-3.05-2.91-3.05-2.38.01-2.88,1.66-2.88,3.05,0,2.1.89,3.05,2.9,3.05,1.89,0,2.9-1.86,2.9-3.05Z"/>
      <path class="cls-1" d="M48.64,6.12c0,2.16-.64,4.23-4.09,4.23s-4.07-2.17-4.07-4.23c0-2.57,1.6-4.23,4.07-4.23s4.09,1.58,4.09,4.23ZM47.46,6.12c0-1.39-.51-3.05-2.91-3.05-1.85,0-2.9,1.11-2.9,3.05s.98,3.05,2.9,3.05c2.02,0,2.91-.95,2.91-3.05Z"/>
      <path class="cls-1" d="M54.94,2.64l-.87.88c-.18-.27-.5-.44-.94-.44-1.7,0-2.75,1.72-2.75,3.31v3.62h-1.18V2.23h1.18v1.72h.11c.47-.98,1.15-2.04,2.64-2.04.84,0,1.42.28,1.8.74Z"/>
    </g>
  </g>
</svg>