<?xml version="1.0" encoding="UTF-8"?>
<svg id="Capa_2" data-name="Capa 2" xmlns="http://www.w3.org/2000/svg" viewBox="0 0 53.23 8.93">
  <defs>
    <style>
      .cls-1 {
        fill: #fff;
      }
    </style>
  </defs>
  <g id="Capa_1-2" data-name="Capa 1">
    <g>
      <path class="cls-1" d="M0,.92h1.94v6.05h3.71v1.8H0V.92Z"/>
      <path class="cls-1" d="M6.56,5.92v-3.07h1.8v3.07c0,.94.46,1.33,1.13,1.33s1.13-.4,1.13-1.33v-3.07h1.8v3.07c0,1.99-1.18,3.01-2.93,3.01s-2.93-1.01-2.93-3.01Z"/>
      <path class="cls-1" d="M13.59,5.44c0-1.91,1.1-2.75,2.54-2.75.84,0,1.55.32,1.99.95.44-.62,1.14-.95,1.99-.95,1.44,0,2.54.84,2.54,2.75v3.34h-1.8v-3.34c0-.79-.38-1.07-.92-1.07s-.91.28-.91,1.07v3.34h-1.8v-3.34c0-.79-.38-1.07-.91-1.07s-.92.28-.92,1.07v3.34h-1.8v-3.34Z"/>
      <path class="cls-1" d="M23.78,1.15c0-.66.49-1.15,1.15-1.15s1.15.49,1.15,1.15-.49,1.15-1.15,1.15-1.15-.49-1.15-1.15ZM24.04,2.84h1.8v5.93h-1.8V2.84Z"/>
      <path class="cls-1" d="M27.21,5.7c0-1.99,1.18-3.01,2.93-3.01s2.93,1.01,2.93,3.01v3.07h-1.8v-3.07c0-.94-.46-1.33-1.13-1.33s-1.13.4-1.13,1.33v3.07h-1.8v-3.07Z"/>
      <path class="cls-1" d="M34,5.81c0-1.8,1.32-3.12,3.19-3.12s3.19,1.32,3.19,3.12-1.32,3.12-3.19,3.12-3.19-1.32-3.19-3.12ZM38.56,5.81c0-.85-.55-1.44-1.37-1.44s-1.37.59-1.37,1.44.55,1.44,1.37,1.44,1.37-.59,1.37-1.44Z"/>
      <path class="cls-1" d="M41.08,6.97h1.78c.01.31.24.47.73.47.55,0,.73-.19.73-.44,0-.4-.43-.43-.98-.52-.82-.12-2.16-.32-2.16-1.75,0-1.2.95-2.04,2.42-2.04s2.39.85,2.42,1.92h-1.75c-.05-.28-.29-.43-.65-.43-.44,0-.62.23-.62.47,0,.36.43.41.98.49.85.12,2.16.35,2.16,1.75,0,1.22-1.01,2.04-2.53,2.04s-2.51-.82-2.53-1.96Z"/>
      <path class="cls-1" d="M46.85,5.81c0-1.8,1.32-3.12,3.19-3.12s3.19,1.32,3.19,3.12-1.32,3.12-3.19,3.12-3.19-1.32-3.19-3.12ZM51.41,5.81c0-.85-.55-1.44-1.37-1.44s-1.37.59-1.37,1.44.55,1.44,1.37,1.44,1.37-.59,1.37-1.44Z"/>
    </g>
  </g>
</svg>