<?xml version="1.0" encoding="UTF-8"?>
<svg id="Capa_2" data-name="Capa 2" xmlns="http://www.w3.org/2000/svg" viewBox="0 0 29.08 10.37">
  <defs>
    <style>
      .cls-1 {
        fill: #fff;
      }
    </style>
  </defs>
  <g id="Capa_1-2" data-name="Capa 1">
    <g>
      <path class="cls-1" d="M.64,7.73v2.61h-.39c-.11,0-.18,0-.22-.01s-.04-.03-.03-.05.05-.05.09-.09c.07-.06.14-.13.21-.23s.12-.21.12-.35V0h.69c.29-.02.56,0,.8.08s.46.28.65.63l4.89,8.91V.01h.39c.11,0,.18,0,.22.01s.04.03.03.05-.05.05-.09.09c-.07.06-.15.13-.22.23s-.11.21-.12.35v9.61h-.53c-.3.02-.57,0-.81-.08s-.47-.28-.69-.62c-.86-1.5-1.71-3.01-2.54-4.52C2.31,3.66,1.49,2.2.64.73v6.99Z"/>
      <path class="cls-1" d="M10.68,7.3c-.05.63.07,1.15.36,1.55s.67.66,1.13.8.93.12,1.39-.05.83-.5,1.12-1l-.06.03-.04.02c-.17.07-.36.08-.56.02-.2-.06-.36-.17-.49-.35-.14-.21-.18-.43-.14-.67s.17-.42.38-.57c.21-.13.43-.18.67-.13s.42.17.56.38c.14.22.18.45.13.69,0,.08-.05.19-.11.33v.03c-.23.56-.62,1.02-1.19,1.36s-1.2.54-1.88.6-1.31-.06-1.86-.35-.93-.8-1.12-1.51c-.19-.88-.15-1.65.12-2.31s.68-1.19,1.22-1.61,1.13-.71,1.76-.88,1.21-.2,1.74-.11.92.33,1.16.7c.22.4.15.78-.21,1.15s-.91.72-1.64,1.04-1.54.6-2.44.85ZM12.76,3.68c-.42.06-.77.24-1.04.57s-.49.7-.64,1.12-.26.81-.32,1.15-.09.56-.09.63c.05-.01.09-.03.14-.03.13-.04.25-.08.37-.13s.26-.14.43-.26.38-.31.64-.55c.31-.3.58-.64.81-1.04s.34-.75.33-1.04-.22-.43-.63-.41Z"/>
      <path class="cls-1" d="M19.38,3.44c1.04.03,1.86.38,2.45,1.04s.89,1.46.89,2.4c0,.63-.13,1.21-.4,1.73s-.66.93-1.17,1.24-1.13.46-1.87.46-1.36-.15-1.87-.46-.9-.72-1.17-1.24-.4-1.1-.4-1.73c0-.95.3-1.76.91-2.41s1.45-1,2.52-1.03c.03,0,.06,0,.1,0ZM19.28,3.58c-.5,0-.92.32-1.28.97s-.53,1.42-.53,2.34.18,1.69.53,2.33.78.97,1.28.97.92-.32,1.27-.97.53-1.42.53-2.33-.18-1.69-.53-2.34-.77-.97-1.27-.97Z"/>
      <path class="cls-1" d="M25.11,4.92v.12c.12-.45.37-.84.76-1.17s.9-.5,1.54-.51c.44,0,.82.14,1.14.43s.5.72.54,1.31c0,1.53,0,3.07-.01,4.59,0,.18-.08.32-.24.42s-.37.16-.63.19-.53.05-.82.05v-4.11c.02-.81-.03-1.43-.12-1.84s-.32-.62-.69-.6c-.38.02-.7.19-.95.49s-.42.68-.51,1.15c0,1.41,0,2.83,0,4.25,0,.18-.08.32-.24.42s-.37.16-.63.19-.54.05-.83.05c0-.82,0-1.65,0-2.47v-2.47c.31.11.6.1.86-.03s.44-.31.53-.56.03-.52-.17-.8h-.01s.04.07.05.11c.06.17.06.36-.01.56-.07.19-.21.35-.4.46-.22.12-.44.15-.67.09s-.41-.2-.54-.41c-.12-.22-.15-.45-.09-.67s.2-.41.42-.54c.45-.23.85-.2,1.19.09s.52.69.55,1.21Z"/>
    </g>
  </g>
</svg>