<?xml version="1.0" encoding="UTF-8"?>
<svg id="Capa_2" data-name="Capa 2" xmlns="http://www.w3.org/2000/svg" viewBox="0 0 44.72 10.9">
  <defs>
    <style>
      .cls-1 {
        fill: #fff;
      }
    </style>
  </defs>
  <g id="Capa_1-2" data-name="Capa 1">
    <g>
      <path class="cls-1" d="M3.96.5c1.9,0,3.58.35,3.58,1.7,0,.37-.13.81-.41,1.33v-.08c0-1.36-1.63-1.66-3.17-1.66-1.31,0-2.31.43-2.31,1.48,0,2.48,6.23.16,6.23,4.54,0,2.06-1.68,3.08-3.95,3.08-1.75,0-3.68-.37-3.68-1.72,0-.34.13-.77.43-1.25,0,1.42,1.77,1.69,3.25,1.69s2.3-.67,2.3-1.7c0-2.78-6.23-.5-6.23-4.46C0,1.19,1.77.5,3.96.5Z"/>
      <path class="cls-1" d="M9.44,2c.33,0,1.49.03,1.49,1.26v.54h2.92s-.01,1.19-.88,1.19h-2.04v3.12c0,.98.31,1.59,1.41,1.59.91,0,1.75-.44,1.75-1.49.33.41.5.78.5,1.15,0,.92-.99,1.53-2.43,1.53-1.69,0-2.71-.88-2.71-2.38V2Z"/>
      <path class="cls-1" d="M15.54.81h1.06c.17,0,.41.18.41.35v1.08h-1.05c-.21,0-.43-.16-.43-.34V.81ZM15.54,3.44c.06,0,1.49,0,1.49.81v6.59s-1.49,0-1.49-.81V3.44Z"/>
      <path class="cls-1" d="M25.14,10.69s-.58.14-.82.14c-1.79,0-.7-3.18-3.95-3.56v3.56s-1.49,0-1.49-.81V0s1.49,0,1.49.81v5.29c1.06-.07,1.58-.71,2.27-2.03.18-.34.57-.64,1.28-.64.23,0,.48.04.71.11-.68.95-1.32,2.73-2.64,3.07,2.29.65,2.43,2.82,3.15,4.07Z"/>
      <path class="cls-1" d="M31.85,9.3c0,1.01-1.25,1.6-2.77,1.6-1.97,0-3.17-.89-3.17-2.38v-2.77c0-1.49,1.04-2.38,2.95-2.38s2.9.89,2.9,2.24c0,1.18-.75,2.21-2.91,2.21-.47,0-1.06-.09-1.45-.3v.78c0,.92.48,1.39,1.67,1.39,1.36,0,2.36-.55,2.37-1.48.27.4.4.75.4,1.08ZM27.41,6.42c.07.03.75.2,1.26.2,1.19,0,1.6-.37,1.6-1.01s-.38-1.11-1.43-1.11c-1.14,0-1.43.54-1.43,1.46v.45Z"/>
      <path class="cls-1" d="M34.9,4.78v6.05s-1.49,0-1.49-.82V3.41c.37.18.7.26.98.26.61,0,1.16-.3,1.97-.3.99,0,1.79.37,1.79,1.24,0,.52-.33.94-.52,1.21,0-.84-.7-1.22-1.52-1.22-.61,0-1.21.2-1.21.2Z"/>
      <path class="cls-1" d="M41.63,3.34c1.62,0,2.74.44,2.74,1.41,0,.34-.14.75-.48,1.22,0-.92-.88-1.39-2.19-1.39-1.12,0-1.53.31-1.53,1.02,0,1.49,4.56-.27,4.56,3.08,0,1.36-1.01,2.23-3.09,2.23-1.67,0-2.9-.48-2.9-1.48,0-.35.16-.75.55-1.23.03,1.12,1.11,1.5,2.34,1.5.89,0,1.58-.35,1.58-1.09,0-1.77-4.56.07-4.56-2.97,0-1.52,1.04-2.3,2.98-2.3Z"/>
    </g>
  </g>
</svg>