<?xml version="1.0" encoding="UTF-8"?>
<svg id="Capa_2" data-name="Capa 2" xmlns="http://www.w3.org/2000/svg" viewBox="0 0 53.05 12.21">
  <defs>
    <style>
      .cls-1 {
        fill: #fff;
      }
    </style>
  </defs>
  <g id="Capa_1-2" data-name="Capa 1">
    <g>
      <path class="cls-1" d="M7.83,0l-.1.95c-.38-.2-1.28-.35-2.71-.44v10.08h-.26c-.26,0-.48-.09-.66-.28-.18-.18-.28-.4-.28-.66V.45c-.62-.02-1.21-.03-1.76-.03-.09,0-.18,0-.28.03-.1.02-.22.06-.37.12-.15.06-.27.17-.36.33-.09.16-.14.35-.14.59,0,.19.03.36.09.5.06.14.14.25.23.31.09.07.18.12.26.16.09.04.16.06.23.06h.1c-.06.31-.26.48-.6.54-.41.07-.73-.07-.98-.4-.17-.22-.26-.5-.26-.84,0-.24.03-.45.1-.65.07-.19.15-.35.26-.48.1-.12.22-.23.35-.33.13-.09.26-.17.38-.21.13-.05.24-.09.35-.11s.19-.04.26-.04h.1s6.05-.01,6.05-.01Z"/>
      <path class="cls-1" d="M12.73,9.81l.09.14s0,.04-.01.07c0,.03-.04.08-.09.15-.05.07-.11.14-.18.19-.07.06-.18.11-.33.16-.15.05-.31.07-.5.07-.44,0-.72-.35-.85-1.06-.17.39-.44.69-.82.92-.37.22-.75.33-1.13.33-.24,0-.46-.03-.67-.09-.21-.06-.4-.16-.59-.29-.18-.13-.33-.32-.44-.57-.11-.25-.16-.54-.16-.88,0-.68.22-1.22.65-1.6s1.13-.77,2.09-1.15c.56-.21.88-.55.97-1.03.09-.48-.03-.88-.35-1.21-.32-.33-.71-.42-1.15-.28-.26.08-.44.22-.57.39s-.18.35-.18.54c0,.18.03.36.08.54s.1.32.16.43l.1.17c-.27.22-.58.27-.92.14-.34-.12-.53-.36-.58-.72-.06-.44.11-.84.51-1.2.4-.36.97-.53,1.73-.53.44,0,.83.07,1.15.2.32.13.57.31.75.53.18.22.31.46.39.72.08.26.12.54.12.84v3.86c0,.29.05.48.16.55.08.05.14.07.21.06.06,0,.12-.03.16-.07.05-.04.08-.09.11-.13.03-.05.05-.09.07-.13l.03-.07ZM9.3,10.23c.23,0,.43-.04.61-.12.18-.08.32-.18.43-.29.1-.11.19-.24.26-.39.07-.15.12-.27.13-.36s.04-.18.06-.27v-2.87c-.09.16-.25.31-.48.46s-.45.28-.69.4c-.24.12-.47.26-.69.41-.22.16-.41.36-.55.62-.15.26-.22.57-.22.92,0,.45.1.82.31,1.09.2.27.48.4.83.4Z"/>
      <path class="cls-1" d="M16.85,9.74l.09.08c-.06.06-.13.13-.23.21-.09.08-.28.2-.55.34s-.53.21-.77.21c-1.29,0-1.93-.71-1.93-2.13V1.12c0-.43-.05-.65-.14-.65-.03,0-.06.02-.11.07-.04.05-.08.09-.11.13l-.04.07-.1-.1s.02-.04.03-.07.04-.08.08-.16c.04-.08.09-.14.16-.19s.15-.1.26-.15c.11-.05.23-.07.36-.07.21,0,.38.06.5.17.13.11.2.23.22.34l.03.17v6.56c0,1.14.07,1.93.2,2.37.13.44.36.67.68.67.19,0,.4-.05.62-.14.23-.09.41-.18.55-.28l.2-.13Z"/>
      <path class="cls-1" d="M18.02,4.6c.65-.7,1.43-1.05,2.34-1.05s1.69.35,2.34,1.05c.65.7.97,1.54.97,2.53s-.32,1.83-.97,2.53c-.65.7-1.43,1.05-2.34,1.05s-1.69-.35-2.34-1.05c-.65-.7-.97-1.54-.97-2.53s.32-1.83.97-2.53ZM18.85,9.38c.45.6.98.89,1.59.87.61-.02,1.12-.34,1.53-.96.41-.62.61-1.36.58-2.22s-.26-1.59-.7-2.19c-.44-.6-.97-.89-1.58-.87-.61.02-1.12.34-1.53.97-.41.62-.61,1.37-.59,2.23s.25,1.59.7,2.19Z"/>
      <path class="cls-1" d="M27.99,3.55c1.31,0,2.16.54,2.54,1.63.11.32.17.62.16.91v1.69c0,.52-.09,1.03-.26,1.53-.18.5-.39.91-.64,1.25s-.5.63-.75.89-.47.45-.65.58l-.27.18-.11-.2s.09-.08.15-.14c.06-.07.17-.22.33-.45.16-.24.3-.49.43-.76.12-.27.23-.63.33-1.09s.15-.93.15-1.42v-1.52c0-.27,0-.53-.03-.77-.02-.24-.05-.47-.08-.67-.03-.21-.09-.39-.16-.55-.08-.16-.17-.3-.28-.41-.11-.11-.25-.2-.41-.26-.17-.06-.36-.09-.57-.09-.32,0-.61.09-.85.26s-.43.39-.55.65c-.12.26-.21.51-.28.76s-.11.46-.12.63l-.03.27v4.16h-1.18V3.58h.26c.26,0,.47.09.65.27.18.18.27.4.27.65v.72c.38-1.12,1.03-1.67,1.96-1.67Z"/>
      <path class="cls-1" d="M37.41,9.81l.09.14s0,.04-.01.07c0,.03-.04.08-.09.15-.05.07-.11.14-.18.19-.07.06-.18.11-.33.16-.15.05-.31.07-.5.07-.44,0-.72-.35-.85-1.06-.17.39-.44.69-.82.92-.37.22-.75.33-1.13.33-.24,0-.46-.03-.67-.09-.21-.06-.4-.16-.59-.29-.18-.13-.33-.32-.44-.57-.11-.25-.16-.54-.16-.88,0-.68.22-1.22.65-1.6s1.13-.77,2.09-1.15c.56-.21.88-.55.97-1.03.09-.48-.03-.88-.35-1.21-.32-.33-.71-.42-1.15-.28-.26.08-.44.22-.57.39s-.18.35-.18.54c0,.18.03.36.08.54s.1.32.16.43l.1.17c-.27.22-.58.27-.92.14-.34-.12-.53-.36-.58-.72-.06-.44.11-.84.51-1.2.4-.36.97-.53,1.73-.53.44,0,.83.07,1.15.2.32.13.57.31.75.53.18.22.31.46.39.72.08.26.12.54.12.84v3.86c0,.29.05.48.16.55.08.05.14.07.21.06.06,0,.12-.03.16-.07.05-.04.08-.09.11-.13.03-.05.05-.09.07-.13l.03-.07ZM33.98,10.23c.23,0,.43-.04.61-.12.18-.08.32-.18.43-.29.1-.11.19-.24.26-.39.07-.15.12-.27.13-.36s.04-.18.06-.27v-2.87c-.09.16-.25.31-.48.46s-.45.28-.69.4c-.24.12-.47.26-.69.41-.22.16-.41.36-.55.62-.15.26-.22.57-.22.92,0,.45.1.82.31,1.09.2.27.48.4.83.4Z"/>
      <path class="cls-1" d="M41.39,3.46c.63-.06,1.1.08,1.4.4.3.33.41.69.33,1.09-.04.2-.12.35-.23.45-.12.1-.23.16-.33.17h-.14c.11-.21.11-.48-.01-.79-.12-.31-.33-.55-.63-.72-.3-.17-.6-.19-.9-.06-.28.13-.53.37-.73.71-.2.34-.33.65-.39.94l-.09.41v4.51h-.26c-.26,0-.47-.09-.65-.28-.18-.18-.27-.4-.27-.66V3.58h1.18v1.36c.15-.41.37-.74.66-1.01.29-.27.65-.42,1.07-.46Z"/>
      <path class="cls-1" d="M45.24,2.16c-.16.16-.35.23-.57.23s-.41-.08-.57-.23c-.16-.16-.23-.35-.23-.57s.08-.41.23-.57c.16-.16.35-.23.57-.23s.41.08.57.23c.16.16.23.35.23.57s-.08.41-.23.57ZM44.34,3.58c.26,0,.47.09.65.27.18.18.27.4.27.65v6.09h-1.18V3.58h.26Z"/>
      <path class="cls-1" d="M47.4,4.6c.65-.7,1.43-1.05,2.34-1.05s1.69.35,2.34,1.05c.65.7.97,1.54.97,2.53s-.32,1.83-.97,2.53c-.65.7-1.43,1.05-2.34,1.05s-1.69-.35-2.34-1.05c-.65-.7-.97-1.54-.97-2.53s.32-1.83.97-2.53ZM48.23,9.38c.45.6.98.89,1.59.87s1.12-.34,1.53-.96.61-1.36.58-2.22-.26-1.59-.7-2.19c-.44-.6-.97-.89-1.58-.87-.61.02-1.12.34-1.53.97-.41.62-.61,1.37-.59,2.23s.25,1.59.7,2.19Z"/>
    </g>
  </g>
</svg>