<?xml version="1.0" encoding="UTF-8"?>
<svg id="Capa_2" data-name="Capa 2" xmlns="http://www.w3.org/2000/svg" viewBox="0 0 42.65 13.16">
  <defs>
    <style>
      .cls-1 {
        fill: #fff;
      }
    </style>
  </defs>
  <g id="Capa_1-2" data-name="Capa 1">
    <g>
      <path class="cls-1" d="M9.22,0l.17.47h-3.76v9.92h-1.87V.48H0L.25,0h3.51s1.87,0,1.87,0h3.59Z"/>
      <path class="cls-1" d="M9.12,5c.63-1.14,1.61-1.7,2.97-1.68.81,0,1.41.18,1.79.51.38.34.58.8.58,1.39v3.84c0,.33.03.58.07.74.05.16.1.29.16.4.03.05.06.1.08.15h-1.61c-.28-.02-.46-.13-.54-.33.44-.48.7-.92.77-1.34-.51.93-1.16,1.5-1.98,1.73s-1.55.16-2.21-.2c-.66-.37-1.01-.97-1.05-1.82.03-1,.34-1.69.91-2.07.57-.38,1.19-.64,1.85-.79.46-.12.85-.26,1.16-.42.32-.17.49-.42.51-.78,0-.23-.12-.39-.37-.49-.24-.1-.58-.08-1.05.03-.46.12-.89.47-1.3,1.03l-.76.09ZM11.82,5.76c-.42.15-.82.38-1.21.69-.39.31-.61.8-.67,1.48-.01.89.23,1.48.73,1.76.51.28,1.14.1,1.91-.53v-3.83c-.16.16-.42.3-.76.44Z"/>
      <path class="cls-1" d="M17.71,4.66c-.15.16-.27.47-.36.93s-.11.83-.05,1.12c0-.96.27-1.75.8-2.38.54-.63,1.24-.94,2.11-.95.44,0,.82.11,1.15.33v1.02c-.38-.73-.91-1.03-1.59-.87s-1.2.53-1.55,1.12c-.35.6-.52,1.32-.52,2.16v3.22h-1.87V3.87l1.87-.51v1.3Z"/>
      <path class="cls-1" d="M23.71,11.12c-.01.67-.15,1.15-.42,1.44s-.59.46-.97.53c-.37.06-.75.08-1.11.06h-.39v-.45c.48-.08.77-.28.87-.57.11-.29.15-.78.14-1.46,0-.15,0-.29,0-.45V3.86l1.87-.51v7.78ZM23.53,1.17c.2.2.3.45.3.73s-.1.53-.3.73-.44.3-.73.3-.53-.1-.73-.3-.3-.45-.3-.73.1-.53.3-.73.44-.3.73-.3.53.1.73.3Z"/>
      <path class="cls-1" d="M30.71,5.3c.12.76-.26,1.23-1.15,1.42s-1.55.39-1.98.61c-.42.22-.7.47-.83.75.42.86,1.03,1.34,1.84,1.45.78.1,1.43-.33,1.91-1.28h.57c-.25.67-.65,1.19-1.21,1.55s-1.18.55-1.86.55c-.96.01-1.77-.3-2.44-.94-.66-.64-1.01-1.52-1.07-2.65.04-1.13.38-1.99,1.03-2.58.64-.58,1.35-.89,2.13-.94.78-.03,1.46.1,2.02.42.56.33.91.87,1.03,1.62ZM26.66,4.5c-.23.44-.35.97-.35,1.57s.08,1.12.27,1.57h.02c.15-.24.4-.46.76-.66.37-.21.76-.37,1.17-.48.42-.12.54-.51.39-1.18-.05-.3-.17-.63-.36-.98-.19-.34-.48-.52-.85-.54-.47,0-.82.24-1.05.69Z"/>
      <path class="cls-1" d="M34.5,3.35h1.36v.48h-1.36v5.27c0,.15.04.28.14.4.1.11.3.16.6.14v.52c-.68.19-1.3.16-1.84-.08-.55-.24-.8-.7-.78-1.39V3.82s-.9,0-.9,0v-.47c.52-.01.91-.13,1.19-.35.28-.23.49-.47.67-.73.12-.19.26-.35.4-.49s.31-.2.53-.2v1.77Z"/>
      <path class="cls-1" d="M37.01,5c.63-1.14,1.61-1.7,2.97-1.68.81,0,1.41.18,1.79.51.38.34.58.8.58,1.39v3.84c0,.33.03.58.07.74.05.16.1.29.16.4.03.05.06.1.08.15h-1.61c-.28-.02-.46-.13-.54-.33.44-.48.7-.92.77-1.34-.51.93-1.16,1.5-1.98,1.73s-1.55.16-2.21-.2c-.66-.37-1.01-.97-1.05-1.82.03-1,.34-1.69.91-2.07.57-.38,1.19-.64,1.85-.79.46-.12.85-.26,1.16-.42.32-.17.49-.42.51-.78,0-.23-.12-.39-.37-.49-.24-.1-.58-.08-1.05.03-.46.12-.89.47-1.3,1.03l-.76.09ZM39.71,5.76c-.42.15-.82.38-1.21.69-.39.31-.61.8-.67,1.48-.01.89.23,1.48.73,1.76.51.28,1.14.1,1.91-.53v-3.83c-.16.16-.42.3-.76.44Z"/>
    </g>
  </g>
</svg>